<svg id="Capa_1" enable-background="new 0 0 512 512" height="512" viewBox="0 0 512 512" width="512" xmlns="http://www.w3.org/2000/svg"><path d="m121 67c-24.813 0-45 20.187-45 45v355c0 3.979 1.58 7.794 4.394 10.606l30 30c5.858 5.858 15.355 5.858 21.213 0l30-30c2.813-2.812 4.393-6.627 4.393-10.606v-355c0-24.813-20.187-45-45-45zm15 393.787-15 15-15-15v-348.787c0-8.271 6.729-15 15-15s15 6.729 15 15z"/><path d="m256 67c-24.813 0-45 20.187-45 45v355c0 3.979 1.58 7.794 4.394 10.606l30 30c5.858 5.858 15.355 5.858 21.213 0l30-30c2.813-2.812 4.393-6.627 4.393-10.606v-355c0-24.813-20.187-45-45-45zm15 393.787-15 15-15-15v-348.787c0-8.271 6.729-15 15-15s15 6.729 15 15z"/><path d="m391 67c-24.813 0-45 20.187-45 45v355c0 3.979 1.58 7.794 4.394 10.606l30 30c5.858 5.858 15.355 5.858 21.213 0l30-30c2.813-2.812 4.393-6.627 4.393-10.606v-355c0-24.813-20.187-45-45-45zm15 393.787-15 15-15-15v-348.787c0-8.271 6.729-15 15-15s15 6.729 15 15z"/><path d="m217.949 45h15.051c8.284 0 15-6.716 15-15s-6.716-15-15-15h-15.051c-.516-7.816-7.002-14-14.949-14s-14.433 6.184-14.949 14h-.101c-.517-7.816-7.003-14-14.95-14s-14.433 6.184-14.949 14h-15.051c-8.284 0-15 6.716-15 15s6.716 15 15 15h15.051c.517 7.816 7.003 14 14.949 14s14.433-6.184 14.949-14h.101c.517 7.816 7.003 14 14.949 14s14.434-6.184 14.95-14z"/><path d="m354 45h15c8.284 0 15-6.716 15-15s-6.716-15-15-15h-15c0-8.284-6.716-15-15-15s-15 6.716-15 15c0-8.284-6.716-15-15-15s-15 6.716-15 15h-15c-8.284 0-15 6.716-15 15s6.716 15 15 15h15c0 8.284 6.716 15 15 15s15-6.716 15-15c0 8.284 6.716 15 15 15s15-6.716 15-15z"/></svg>